<?xml version="1.0" encoding="UTF-8" standalone="no"?>
<svg
   width="120.2504mm"
   height="23.478466mm"
   viewBox="0 0 120.2504 23.478466"
   version="1.1"
   id="svg1"
   sodipodi:docname="logo-text.svg"
   inkscape:version="1.4.1 (93de688d07, 2025-03-30)"
   xmlns:inkscape="http://www.inkscape.org/namespaces/inkscape"
   xmlns:sodipodi="http://sodipodi.sourceforge.net/DTD/sodipodi-0.dtd"
   xmlns="http://www.w3.org/2000/svg"
   xmlns:svg="http://www.w3.org/2000/svg">
  <defs
     id="defs1" />
  <sodipodi:namedview
     id="namedview1"
     pagecolor="#ffffff"
     bordercolor="#000000"
     borderopacity="0.25"
     inkscape:showpageshadow="2"
     inkscape:pageopacity="0.0"
     inkscape:pagecheckerboard="0"
     inkscape:deskcolor="#d1d1d1"
     inkscape:document-units="mm"
     inkscape:zoom="1.2517933"
     inkscape:cx="170.55532"
     inkscape:cy="110.64127"
     inkscape:window-width="1350"
     inkscape:window-height="900"
     inkscape:window-x="0"
     inkscape:window-y="0"
     inkscape:window-maximized="0"
     inkscape:current-layer="svg1" />
  <path
     d="M 16.200141,0 H 5.4000471 L 9.3913863,7.04354 0,23.47846 h 10.800094 l 3.991339,-7.04354 h 10.800095 z"
     style="fill:#ffffff;fill-opacity:1;stroke-width:0.234785"
     id="path1" />
  <path
     style="font-weight:900;font-size:31.8476px;line-height:1.5;font-family:Inter;-inkscape-font-specification:'Inter Heavy';text-align:center;letter-spacing:0.477714px;text-anchor:middle;fill:#ffffff;stroke-width:0.902766"
     d="M 33.24678,23.161804 H 26.46107 L 34.106303,-8.7391246e-5 h 8.595234 L 50.34677,23.161804 H 43.56106 L 38.494396,6.3784804 h -0.180952 z m -1.266666,-9.13809 H 44.73725 v 4.704759 H 31.980114 Z M 59.374463,-8.7391246e-5 V 23.161804 H 53.131609 V -8.7391246e-5 Z M 69.261677,13.390381 v 9.771423 H 63.018824 V 5.7903855 h 5.926187 v 3.3023791 h 0.180952 c 0.376984,-1.1007931 1.040476,-1.9640862 1.990475,-2.5898795 0.957539,-0.6257933 2.073412,-0.9386899 3.347617,-0.9386899 1.228968,0 2.295833,0.2827379 3.200594,0.8482138 0.912301,0.5579361 1.61726,1.3269833 2.114879,2.3071415 0.505159,0.9801583 0.753968,2.0998005 0.746429,3.3589265 v 11.083327 h -6.242854 v -9.771423 c 0.0075,-0.859523 -0.211111,-1.534324 -0.655952,-2.024403 -0.437301,-0.490079 -1.048015,-0.735119 -1.832142,-0.735119 -0.512698,0 -0.961309,0.113095 -1.345832,0.339285 -0.376984,0.218651 -0.667262,0.535317 -0.870833,0.95 -0.203571,0.407143 -0.309127,0.897222 -0.316667,1.470237 z m 23.141994,10.08809 c -1.854761,0 -3.453172,-0.354365 -4.795235,-1.063095 -1.334523,-0.716269 -2.363689,-1.741666 -3.087498,-3.076189 -0.716269,-1.342063 -1.074404,-2.948014 -1.074404,-4.817854 0,-1.794443 0.361904,-3.362696 1.085713,-4.7047593 0.723809,-1.3420627 1.745436,-2.3863082 3.064879,-3.1327363 1.319444,-0.7464281 2.876388,-1.1196422 4.670831,-1.1196422 1.311904,0 2.499403,0.2035713 3.562498,0.6107139 1.063095,0.4071426 1.971626,0.9990073 2.725594,1.7755942 0.753967,0.7690472 1.334521,1.7039674 1.741661,2.8047607 0.40715,1.100793 0.61072,2.34107 0.61072,3.720831 v 1.447618 H 85.391771 V 12.48562 h 9.771423 C 95.155654,11.988001 95.027479,11.5507 94.77867,11.173716 94.5374,10.789192 94.209424,10.491375 93.794742,10.280264 93.387599,10.061613 92.923909,9.9522879 92.403671,9.9522879 c -0.505158,0 -0.968848,0.1093251 -1.39107,0.3279761 -0.422222,0.211111 -0.761508,0.505158 -1.017857,0.882142 -0.248809,0.376984 -0.380754,0.818055 -0.395833,1.323214 v 3.709521 c 0,0.557937 0.116865,1.055556 0.350595,1.492857 0.23373,0.437301 0.569246,0.780357 1.006547,1.029166 0.437301,0.248809 0.965079,0.373214 1.583332,0.373214 0.429762,0 0.821825,-0.06032 1.17619,-0.180952 0.361905,-0.120635 0.671032,-0.294048 0.927381,-0.520238 0.256349,-0.23373 0.444841,-0.512698 0.565476,-0.836904 h 5.699998 c -0.19603,1.206348 -0.65972,2.254363 -1.391072,3.144045 -0.731349,0.882143 -1.700197,1.568254 -2.906546,2.058333 -1.198809,0.482539 -2.60119,0.723809 -4.207141,0.723809 z M 119.79802,11.445144 h -5.74524 c -0.0301,-0.354365 -0.15454,-0.659722 -0.37321,-0.916071 -0.21865,-0.256349 -0.50139,-0.45238 -0.84822,-0.5880946 -0.33928,-0.1432539 -0.71626,-0.2148808 -1.13095,-0.2148808 -0.53531,0 -0.99523,0.098016 -1.37976,0.2940474 -0.38452,0.196031 -0.57301,0.474999 -0.56547,0.836904 -0.008,0.256349 0.10179,0.493849 0.32797,0.7125 0.23373,0.218651 0.68234,0.388293 1.34583,0.508928 l 3.52857,0.633333 c 1.77937,0.324206 3.10258,0.870833 3.96964,1.63988 0.87461,0.761507 1.31568,1.783134 1.32322,3.064879 -0.008,1.236507 -0.37698,2.310912 -1.10833,3.223213 -0.72381,0.904761 -1.71528,1.605951 -2.97441,2.10357 -1.25159,0.490079 -2.68036,0.735119 -4.28631,0.735119 -2.65397,0 -4.73115,-0.542857 -6.23154,-1.628571 -1.49285,-1.085713 -2.32599,-2.518252 -2.4994,-4.297616 h 6.19761 c 0.0829,0.550396 0.35437,0.976388 0.81429,1.277975 0.46746,0.294047 1.05555,0.441071 1.76428,0.441071 0.57302,0 1.04425,-0.09802 1.41369,-0.294047 0.37699,-0.196032 0.56925,-0.475 0.57679,-0.836905 -0.008,-0.331745 -0.17341,-0.595634 -0.49762,-0.791666 -0.31667,-0.196031 -0.81429,-0.354364 -1.49286,-0.474999 l -3.07619,-0.542857 c -1.77182,-0.309127 -3.0988,-0.897222 -3.98095,-1.764285 -0.88214,-0.867063 -1.31944,-1.982936 -1.3119,-3.347617 -0.008,-1.206349 0.30913,-2.2279751 0.95,-3.0648794 0.64841,-0.8444439 1.57202,-1.4853166 2.77083,-1.9226179 1.20635,-0.444841 2.63512,-0.6672615 4.28631,-0.6672615 2.51071,0 4.48988,0.5202378 5.9375,1.5607134 1.45515,1.0404756 2.22043,2.4805541 2.29583,4.3202354 z"
     id="text1"
     aria-label="Alnes"
     sodipodi:nodetypes="cccccccccccccccccccccccccccscccccccscccsccssssscssccccccscccssssccccccsccscssccccccccsccccscccccscccscc" />
</svg>
