<?xml version="1.0" encoding="UTF-8" standalone="no"?>
<!-- Created with Inkscape (http://www.inkscape.org/) -->

<svg
   width="210mm"
   height="130.00002mm"
   viewBox="0 0 210 130.00002"
   version="1.1"
   id="svg1"
   xml:space="preserve"
   sodipodi:docname="prew.svg"
   inkscape:version="1.4.2 (ebf0e94, 2025-05-08)"
   xmlns:inkscape="http://www.inkscape.org/namespaces/inkscape"
   xmlns:sodipodi="http://sodipodi.sourceforge.net/DTD/sodipodi-0.dtd"
   xmlns="http://www.w3.org/2000/svg"
   xmlns:svg="http://www.w3.org/2000/svg"><sodipodi:namedview
     id="namedview1"
     pagecolor="#ffffff"
     bordercolor="#000000"
     borderopacity="0.25"
     inkscape:showpageshadow="0"
     inkscape:pageopacity="0.0"
     inkscape:pagecheckerboard="0"
     inkscape:deskcolor="#d1d1d1"
     inkscape:document-units="mm"
     inkscape:zoom="0.88198942"
     inkscape:cx="417.23857"
     inkscape:cy="261.9079"
     inkscape:window-width="2560"
     inkscape:window-height="1440"
     inkscape:window-x="0"
     inkscape:window-y="0"
     inkscape:window-maximized="1"
     inkscape:current-layer="layer1"><inkscape:page
       x="0"
       y="0"
       width="210"
       height="130.00002"
       id="page2"
       margin="0"
       bleed="0" /></sodipodi:namedview><defs
     id="defs1" /><g
     inkscape:label="Layer 1"
     inkscape:groupmode="layer"
     id="layer1"><rect
       style="fill:#000000;fill-opacity:1;stroke-width:1;stroke-linecap:square;stroke-linejoin:round"
       id="rect1"
       width="210"
       height="130"
       x="0"
       y="0" /><path
       d="M 78.377328,49.310877 H 63.911392 l 5.424856,9.396264 -12.657925,21.924044 h 14.466163 l 5.424828,-9.396247 h 14.46575 z"
       style="fill:#ffffff;fill-opacity:1;stroke:none;stroke-width:9.69375;stroke-dasharray:none;stroke-opacity:1;paint-order:stroke fill markers"
       id="path19"
       sodipodi:nodetypes="cccccccc" /><path
       style="font-style:italic;font-weight:800;font-size:43.8045px;line-height:1;font-family:'JetBrains Mono';-inkscape-font-specification:'JetBrains Mono Ultra-Bold Italic';letter-spacing:0px;fill:#ffffff;stroke-width:1.94017;stroke-linecap:square;stroke-linejoin:round"
       d="m 95.065133,80.631092 q -1.927399,0 -2.978707,-1.226526 -1.051308,-1.226526 -0.744676,-3.197729 0.350436,-1.971203 1.75218,-3.197729 1.401744,-1.226526 3.372947,-1.226526 1.971202,0 3.02251,1.226526 1.051313,1.226526 0.700873,3.197729 -0.306632,1.971203 -1.708376,3.197729 -1.401744,1.226526 -3.416751,1.226526 z m 17.181897,-0.438045 q -3.67958,0 -5.43176,-2.102616 -1.75218,-2.102616 -1.18272,-5.782195 l 1.62076,-10.294057 h -6.48306 l 0.91989,-5.913608 h 6.48307 l 1.09511,-6.789697 h 6.57068 l -1.09512,6.789697 h 9.41797 l -0.91989,5.913608 h -9.41797 l -1.62077,10.075035 q -0.13141,0.963699 0.26283,1.576962 0.39424,0.613263 1.35794,0.613263 h 7.22774 l -0.91989,5.913608 z m 14.49922,0 3.81099,-24.092476 h 6.35165 l -0.70087,4.511864 q 0.9199,-2.321639 2.8911,-3.635774 1.9712,-1.314135 4.64328,-1.314135 3.63577,0 5.30034,2.453052 1.66457,2.453052 0.9637,6.745893 l -0.35044,2.409248 h -6.57067 l 0.30663,-1.971203 q 0.30663,-1.883593 -0.56946,-2.891097 -0.83228,-1.051308 -2.67207,-1.051308 -1.83979,0 -3.02251,1.182722 -1.18273,1.138917 -1.53316,3.285337 l -2.27784,14.367877 z"
       id="text5"
       aria-label=".tr" /></g></svg>
